{"title":"Dancing With the Stars US-S19E01 (BETTER COPY) -GHOST-","uid":11044793,"size":3194024364,"categoryP":"video","categoryS":"tv_shows","magnet":"?xt=urn:btih:a053e002a9c6ac4bacdbde76c64d5f03c9300059&amp;dn=Dancing+With+the+Stars+US-S19E01+%28BETTER+COPY%29+-GHOST-&amp;tr=udp%3A%2F%2Ftracker.openbittorrent.com%3A80&amp;tr=udp%3A%2F%2Fopen.demonii.com%3A1337&amp;tr=udp%3A%2F%2Ftracker.coppersurfer.tk%3A6969&amp;tr=udp%3A%2F%2Fexodus.desync.com%3A6969","seeders":0,"leechers":0,"uploader":"---GHOST---","files":6,"time":1410933602,"description":"Dancing With the Stars US-S19E01 (BETTER COPY) -GHOST-\n\n\nSeason 19 Premiere\n \n\n\nSnapshot:\n  &lt;a href=&quot;\nhttp://bayimg.com/GAacJaaGH&quot; rel=&quot;nofollow&quot; target=&quot;_NEW&quot;&gt;\nhttp://bayimg.com/GAacJaaGH&lt;/a&gt; &lt;a href=&quot;\nhttp://bayimg.com/GAacmaAGH&quot; rel=&quot;nofollow&quot; target=&quot;_NEW&quot;&gt;\nhttp://bayimg.com/GAacmaAGH&lt;/a&gt; &lt;a href=&quot;\nhttp://bayimg.com/gaAClaAGh&quot; rel=&quot;nofollow&quot; target=&quot;_NEW&quot;&gt;\nhttp://bayimg.com/gaAClaAGh&lt;/a&gt; &lt;a href=&quot;\nhttp://bayimg.com/GaAcpaagH&quot; rel=&quot;nofollow&quot; target=&quot;_NEW&quot;&gt;\nhttp://bayimg.com/GaAcpaagH&lt;/a&gt;\n\n----------------------------------------\n\nGeneral\n\nComplete name                            : Dancing With the Stars US-S19E01 (BETTER COPY) -GHOST-.mp4\nFormat                                   : MPEG-4\nFormat profile                           : Base Media\nCodec ID                                 : isom\nFile size                                : 2.97 GiB\nDuration                                 : 1h 26mn\nOverall bit rate                         : 4 934 Kbps\nEncoded date                             : UTC 2014-09-16 11:20:01\nTagged date                              : UTC 2014-09-16 11:20:01\nWriting application                      : Lavf53.24.2\n\nVideo\n\nID                                       : 1\nFormat                                   : AVC\nFormat/Info                              : Advanced Video Codec\nFormat profile                           : &lt;a class=&quot;__cf_email__&quot; href=&quot;/cdn-cgi/l/email-protection&quot; data-cfemail=&quot;4f0d2e3c2a2326212a0f037c617e&quot;&gt;[email&amp;#160;protected]&lt;/a&gt;&lt;script data-cfhash='f9e31' type=&quot;text/javascript&quot;&gt;\n/* &lt;![CDATA[ */!function(){try{var t=&quot;currentScript&quot;in document?document.currentScript:function(){for(var t=document.getElementsByTagName(&quot;script&quot;),e=t.length;e--;)if(t[e].getAttribute(&quot;data-cfhash&quot;))return t[e]}();if(t&amp;&amp;t.previousSibling){var e,r,n,i,c=t.previousSibling,a=c.getAttribute(&quot;data-cfemail&quot;);if(a){for(e=&quot;&quot;,r=parseInt(a.substr(0,2),16),n=2;a.length-n;n+=2)i=parseInt(a.substr(n,2),16)^r,e+=String.fromCharCode(i);e=document.createTextNode(e),c.parentNode.replaceChild(e,c)}t.parentNode.removeChild(t);}}catch(u){}}()/* ]]&gt; */&lt;/script&gt;\nFormat settings, CABAC                   : No\nFormat settings, ReFrames                : 1 frame\nFormat settings, GOP                     : M=1, N=12\nCodec ID                                 : avc1\nCodec ID/Info                            : Advanced Video Coding\nDuration                                 : 1h 26mn\nBit rate                                 : 4 800 Kbps\nWidth                                    : 720 pixels\nHeight                                   : 576 pixels\nDisplay aspect ratio                     : 16:9\nFrame rate mode                          : Constant\nFrame rate                               : 29.970 fps\nStandard                                 : PAL\nColor space                              : YUV\nChroma subsampling                       : 4:2:0\nBit depth                                : 8 bits\nScan type                                : Progressive\nBits/(Pixel*Frame)                       : 0.386\nStream size                              : 2.91 GiB (98%)\nWriting library                          : x264 core 120\nLanguage                                 : English\nEncoded date                             : UTC 2014-09-16 11:20:01\nTagged date                              : UTC 2014-09-16 11:20:01\n\nAudio\n\nID                                       : 2\nFormat                                   : AAC\nFormat/Info                              : Advanced Audio Codec\nFormat profile                           : LC\nCodec ID                                 : 40\nDuration                                 : 1h 26mn\nBit rate mode                            : Constant\nBit rate                                 : 104 Kbps\nChannel(s)                               : 2 channels\nChannel(s)_Original                      : 6 channels\nChannel positions                        : Front: L C R, Side: L R, LFE\nSampling rate                            : 48.0 KHz\nCompression mode                         : Lossy\nStream size                              : 64.1 MiB (2%)\nLanguage                                 : English\nEncoded date                             : UTC 2014-09-16 11:20:01\nTagged date                              : UTC 2014-09-16 11:20:01\n\n----------------------------------------\n\n Enjoy\n\n~GHOST~\t","torrent":{"xt":"urn:btih:a053e002a9c6ac4bacdbde76c64d5f03c9300059","amp;dn":"Dancing+With+the+Stars+US-S19E01+%28BETTER+COPY%29+-GHOST-","amp;tr":["udp%3A%2F%2Ftracker.openbittorrent.com%3A80","udp%3A%2F%2Fopen.demonii.com%3A1337","udp%3A%2F%2Ftracker.coppersurfer.tk%3A6969","udp%3A%2F%2Fexodus.desync.com%3A6969"],"infoHash":"a053e002a9c6ac4bacdbde76c64d5f03c9300059","infoHashBuffer":{"type":"Buffer","data":[160,83,224,2,169,198,172,75,172,219,222,118,198,77,95,3,201,48,0,89]},"announce":[],"urlList":[]}}